<svg height="600" viewBox="0 0 800 600" width="800" xmlns="http://www.w3.org/2000/svg">
<style>
.chart-bar { fill: steelblue; stroke: none; }
        .chart-line { fill: none; stroke: steelblue; stroke-width: 2; }
        .chart-point { fill: steelblue; stroke: white; stroke-width: 1; }
        .chart-pie { stroke: white; stroke-width: 1; }
        .chart-axis { stroke: black; stroke-width: 1; }
        .chart-axis-text { font-family: Arial, sans-serif; font-size: 12px; fill: black; }
        .chart-title { font-family: Arial, sans-serif; font-size: 16px; font-weight: bold; fill: black; text-anchor: middle; }
</style>
<rect class="chart-bar" fill="#2E86AB" height="300" width="112" x="64" y="250"/>
<text class="chart-axis-text" text-anchor="middle" x="120" y="245">
120.0
</text>
<rect class="chart-bar" fill="#2E86AB" height="212.5" width="112" x="204" y="337.5"/>
<text class="chart-axis-text" text-anchor="middle" x="260" y="332.5">
85.0
</text>
<rect class="chart-bar" fill="#2E86AB" height="375" width="112" x="344" y="175"/>
<text class="chart-axis-text" text-anchor="middle" x="400" y="170">
150.0
</text>
<rect class="chart-bar" fill="#2E86AB" height="237.5" width="112" x="484" y="312.5"/>
<text class="chart-axis-text" text-anchor="middle" x="540" y="307.5">
95.0
</text>
<rect class="chart-bar" fill="#2E86AB" height="500" width="112" x="624" y="50"/>
<text class="chart-axis-text" text-anchor="middle" x="680" y="45">
200.0
</text>
<line class="chart-axis" x1="50" x2="750" y1="550" y2="550"/>
<line class="chart-axis" x1="50" x2="50" y1="50" y2="550"/>
<text class="chart-axis-text" text-anchor="middle" x="120" y="568">
Product A
</text>
<text class="chart-axis-text" text-anchor="middle" x="260" y="568">
Product B
</text>
<text class="chart-axis-text" text-anchor="middle" x="400" y="568">
Product C
</text>
<text class="chart-axis-text" text-anchor="middle" x="540" y="568">
Product D
</text>
<text class="chart-axis-text" text-anchor="middle" x="680" y="568">
Product E
</text>
<line class="chart-axis" x1="45" x2="50" y1="550" y2="550"/>
<text class="chart-axis-text" text-anchor="end" x="42" y="554">
0.0
</text>
<line class="chart-axis" x1="45" x2="50" y1="425" y2="425"/>
<text class="chart-axis-text" text-anchor="end" x="42" y="429">
50.0
</text>
<line class="chart-axis" x1="45" x2="50" y1="300" y2="300"/>
<text class="chart-axis-text" text-anchor="end" x="42" y="304">
100.0
</text>
<line class="chart-axis" x1="45" x2="50" y1="175" y2="175"/>
<text class="chart-axis-text" text-anchor="end" x="42" y="179">
150.0
</text>
<line class="chart-axis" x1="45" x2="50" y1="50" y2="50"/>
<text class="chart-axis-text" text-anchor="end" x="42" y="54">
200.0
</text>
<text class="chart-title" x="400" y="25">
Product Sales
</text>
</svg>