<svg height="600" viewBox="0 0 800 600" width="800" xmlns="http://www.w3.org/2000/svg">
<style>
.chart-bar { fill: steelblue; stroke: none; }
        .chart-line { fill: none; stroke: steelblue; stroke-width: 2; }
        .chart-point { fill: steelblue; stroke: white; stroke-width: 1; }
        .chart-pie { stroke: white; stroke-width: 1; }
        .chart-axis { stroke: black; stroke-width: 1; }
        .chart-axis-text { font-family: Arial, sans-serif; font-size: 12px; fill: black; }
        .chart-title { font-family: Arial, sans-serif; font-size: 16px; font-weight: bold; fill: black; text-anchor: middle; }
</style>
<path class="chart-line" d="M 50 550 L 190 383.33333333333337 L 330 494.44444444444446 L 470 216.66666666666669 L 610 327.7777777777778 L 750 50" fill="none" stroke="#A23B72" stroke-width="2"/>
<circle class="chart-point" cx="50" cy="550" fill="#A23B72" r="3"/>
<circle class="chart-point" cx="190" cy="383.33333333333337" fill="#A23B72" r="3"/>
<circle class="chart-point" cx="330" cy="494.44444444444446" fill="#A23B72" r="3"/>
<circle class="chart-point" cx="470" cy="216.66666666666669" fill="#A23B72" r="3"/>
<circle class="chart-point" cx="610" cy="327.7777777777778" fill="#A23B72" r="3"/>
<circle class="chart-point" cx="750" cy="50" fill="#A23B72" r="3"/>
<line class="chart-axis" x1="50" x2="750" y1="550" y2="550"/>
<line class="chart-axis" x1="50" x2="50" y1="50" y2="550"/>
<line class="chart-axis" x1="50" x2="50" y1="550" y2="555"/>
<text class="chart-axis-text" text-anchor="middle" x="50" y="568">
0.0
</text>
<line class="chart-axis" x1="225" x2="225" y1="550" y2="555"/>
<text class="chart-axis-text" text-anchor="middle" x="225" y="568">
1.2
</text>
<line class="chart-axis" x1="400" x2="400" y1="550" y2="555"/>
<text class="chart-axis-text" text-anchor="middle" x="400" y="568">
2.5
</text>
<line class="chart-axis" x1="575" x2="575" y1="550" y2="555"/>
<text class="chart-axis-text" text-anchor="middle" x="575" y="568">
3.8
</text>
<line class="chart-axis" x1="750" x2="750" y1="550" y2="555"/>
<text class="chart-axis-text" text-anchor="middle" x="750" y="568">
5.0
</text>
<line class="chart-axis" x1="45" x2="50" y1="550" y2="550"/>
<text class="chart-axis-text" text-anchor="end" x="42" y="554">
10.0
</text>
<line class="chart-axis" x1="45" x2="50" y1="425" y2="425"/>
<text class="chart-axis-text" text-anchor="end" x="42" y="429">
21.2
</text>
<line class="chart-axis" x1="45" x2="50" y1="300" y2="300"/>
<text class="chart-axis-text" text-anchor="end" x="42" y="304">
32.5
</text>
<line class="chart-axis" x1="45" x2="50" y1="175" y2="175"/>
<text class="chart-axis-text" text-anchor="end" x="42" y="179">
43.8
</text>
<line class="chart-axis" x1="45" x2="50" y1="50" y2="50"/>
<text class="chart-axis-text" text-anchor="end" x="42" y="54">
55.0
</text>
<text class="chart-title" x="400" y="25">
Stock Price Over Time
</text>
</svg>